<svg width="14" height="10" viewBox="0 0 14 10" fill="none" xmlns="http://www.w3.org/2000/svg">
<path d="M0.98735 3.44824L12.6925 1.01215C13.2942 0.886923 13.6658 1.75978 13.2206 2.25245L8.28284 7.71586C8.23759 7.76593 8.1874 7.81031 8.12668 7.82563C7.76261 7.91746 6.96003 7.64245 6.13987 7.28023M0.583344 3.88805C0.978126 4.25434 1.82053 4.93455 2.56457 5.26002C2.85912 5.38886 3.08977 5.70772 3.08928 6.07769C3.0881 6.9858 3.12576 8.13499 3.26022 8.78004C3.33025 9.11602 3.57972 9.04437 3.67957 8.71901C3.70401 8.63936 3.7297 8.55446 3.75636 8.4649M3.56544 8.93172L6.13987 7.28023M6.13987 7.28023C5.92584 7.18571 5.71062 7.08525 5.50168 6.98382M3.75636 8.4649L5.80908 7.15281L5.50168 6.98382M3.75636 8.4649C3.79281 8.34246 3.83108 8.21134 3.87045 8.07311M5.50168 6.98382L3.87045 8.07311M5.50168 6.98382C5.38375 6.92657 5.26781 6.86901 5.15522 6.81203M3.87045 8.07311C3.9113 7.92971 3.95333 7.77867 3.99576 7.62175M3.99576 7.62175C4.03257 7.48563 4.06968 7.34508 4.10658 7.20126C4.11536 7.16704 4.12601 7.13412 4.13835 7.10258M3.99576 7.62175L5.15522 6.81203M5.15522 6.81203C5.09682 6.78247 5.03931 6.75307 4.98289 6.72395C4.95128 6.70764 4.91919 6.6946 4.88689 6.68469M4.88689 6.68469C4.58718 6.59275 4.26854 6.77013 4.13835 7.10258M4.88689 6.68469L4.13835 7.10258" stroke="white" stroke-linecap="round"/>
</svg>
