<svg width="96" height="30" viewBox="0 0 96 30" fill="none" xmlns="http://www.w3.org/2000/svg">
<g filter="url(#filter0_d_0_27143)">
<path fill-rule="evenodd" clip-rule="evenodd" d="M10.0762 10.4403L15.9238 13.8164L9.5814 24.8017C9.2043 25.4549 8.26741 25.4714 7.86752 24.832L6.72258 23.0012L4.56459 22.925C3.81085 22.8984 3.35672 22.0788 3.73382 21.4256L10.0762 10.4403Z" fill="#F55462"/>
</g>
<mask id="mask0_0_27143" style="mask-type:luminance" maskUnits="userSpaceOnUse" x="3" y="10" width="13" height="16">
<path fill-rule="evenodd" clip-rule="evenodd" d="M10.0762 10.4403L15.9238 13.8164L9.5814 24.8017C9.2043 25.4549 8.26741 25.4714 7.86752 24.832L6.72258 23.0012L4.56459 22.925C3.81085 22.8984 3.35672 22.0788 3.73382 21.4256L10.0762 10.4403Z" fill="white"/>
</mask>
<g mask="url(#mask0_0_27143)">
<path fill-rule="evenodd" clip-rule="evenodd" d="M8.16205 17.1319L11.0858 18.8199L7.28772 25.3984L4.36393 23.7104L8.16205 17.1319Z" fill="white"/>
</g>
<g filter="url(#filter1_d_0_27143)">
<path fill-rule="evenodd" clip-rule="evenodd" d="M15.9238 10.4403L10.0762 13.8164L16.4187 24.8017C16.7958 25.4549 17.7326 25.4714 18.1325 24.832L19.2775 23.0012L21.4355 22.925C22.1892 22.8984 22.6433 22.0788 22.2662 21.4256L15.9238 10.4403Z" fill="#F55462"/>
</g>
<mask id="mask1_0_27143" style="mask-type:luminance" maskUnits="userSpaceOnUse" x="10" y="10" width="13" height="16">
<path fill-rule="evenodd" clip-rule="evenodd" d="M15.9238 10.4403L10.0762 13.8164L16.4187 24.8017C16.7958 25.4549 17.7326 25.4714 18.1325 24.832L19.2775 23.0012L21.4355 22.925C22.1892 22.8984 22.6433 22.0788 22.2662 21.4256L15.9238 10.4403Z" fill="white"/>
</mask>
<g mask="url(#mask1_0_27143)">
<path fill-rule="evenodd" clip-rule="evenodd" d="M17.838 17.1319L14.9142 18.8199L18.7123 25.3984L21.6361 23.7104L17.838 17.1319Z" fill="white"/>
</g>
<path style="mix-blend-mode:multiply" opacity="0.2" fill-rule="evenodd" clip-rule="evenodd" d="M11.0001 3.99874C12.2377 3.28421 13.7625 3.28421 15.0001 3.99874L19.406 6.54248C20.6436 7.25701 21.406 8.57752 21.406 10.0066V15.0941C21.406 16.5231 20.6436 17.8436 19.406 18.5582L15.0001 21.1019C13.7625 21.8164 12.2377 21.8164 11.0001 21.1019L6.59418 18.5582C5.35657 17.8436 4.59418 16.5231 4.59418 15.0941L4.59418 10.0066C4.59418 8.57752 5.35657 7.25701 6.59418 6.54248L11.0001 3.99874Z" fill="#0602F3"/>
<path fill-rule="evenodd" clip-rule="evenodd" d="M20.5963 6.47514C20.5963 6.06624 20.8452 5.69853 21.2249 5.54667L21.8835 5.28322C22.2776 5.12557 22.7064 5.41583 22.7064 5.84031V11.4513C22.7064 11.8602 22.4574 12.2279 22.0778 12.3797L20.5963 12.9723V6.47514Z" fill="url(#paint0_linear_0_27143)" stroke="url(#paint1_linear_0_27143)" stroke-linecap="round" stroke-linejoin="round"/>
<mask id="mask2_0_27143" style="mask-type:luminance" maskUnits="userSpaceOnUse" x="20" y="4" width="4" height="9">
<path fill-rule="evenodd" clip-rule="evenodd" d="M20.5963 6.5124C20.5963 6.081 20.8589 5.69305 21.2595 5.53283C21.9525 5.25563 22.7064 5.766 22.7064 6.5124V11.414C22.7064 11.8454 22.4437 12.2334 22.0432 12.3936C21.3501 12.6708 20.5963 12.1604 20.5963 11.414V6.5124Z" fill="white" stroke="white"/>
</mask>
<g mask="url(#mask2_0_27143)">
<g opacity="0.04">
<path fill-rule="evenodd" clip-rule="evenodd" d="M15.9994 2.86469C14.143 1.79289 11.8558 1.79289 9.99938 2.86469L6.84233 4.68741C4.98593 5.75921 3.84233 7.73997 3.84233 9.88357V13.529C3.84233 15.6726 4.98592 17.6534 6.84233 18.7252L9.99938 20.5479C11.8558 21.6197 14.143 21.6197 15.9994 20.5479L19.1564 18.7252C21.0128 17.6534 22.1564 15.6726 22.1564 13.529L22.1564 9.88357C22.1564 7.73998 21.0128 5.75921 19.1564 4.68742L15.9994 2.86469Z" fill="#0602F3" style="mix-blend-mode:multiply"/>
</g>
</g>
<path fill-rule="evenodd" clip-rule="evenodd" d="M5.40383 6.47514C5.40383 6.06624 5.15487 5.69853 4.77522 5.54667L4.1166 5.28322C3.72248 5.12557 3.29376 5.41583 3.29376 5.84031V11.4513C3.29376 11.8602 3.54271 12.2279 3.92237 12.3797L5.40383 12.9723V6.47514Z" fill="url(#paint2_linear_0_27143)" stroke="url(#paint3_linear_0_27143)" stroke-linecap="round" stroke-linejoin="round"/>
<mask id="mask3_0_27143" style="mask-type:luminance" maskUnits="userSpaceOnUse" x="2" y="4" width="4" height="9">
<path fill-rule="evenodd" clip-rule="evenodd" d="M5.40383 6.5124C5.40383 6.081 5.14117 5.69305 4.74062 5.53283C4.04761 5.25563 3.29376 5.766 3.29376 6.5124V11.414C3.29376 11.8454 3.55641 12.2334 3.95696 12.3936C4.64998 12.6708 5.40383 12.1604 5.40383 11.414V6.5124Z" fill="white" stroke="white"/>
</mask>
<g mask="url(#mask3_0_27143)">
<g opacity="0.04">
<path fill-rule="evenodd" clip-rule="evenodd" d="M9.99939 2.86469C11.8558 1.79289 14.143 1.79289 15.9994 2.86469L19.1564 4.68741C21.0129 5.75921 22.1564 7.73997 22.1564 9.88357V13.529C22.1564 15.6726 21.0129 17.6534 19.1564 18.7252L15.9994 20.5479C14.143 21.6197 11.8558 21.6197 9.9994 20.5479L6.84235 18.7252C4.98594 17.6534 3.84235 15.6726 3.84235 13.529L3.84235 9.88357C3.84235 7.73998 4.98594 5.75921 6.84235 4.68742L9.99939 2.86469Z" fill="#0602F3" style="mix-blend-mode:multiply"/>
</g>
</g>
<path fill-rule="evenodd" clip-rule="evenodd" d="M18.4862 4.62013C18.4862 3.94733 17.8352 3.46649 17.1921 3.66435L13 4.95422L8.80794 3.66435C8.16489 3.46649 7.51385 3.94733 7.51385 4.62013V9.44039C7.51385 9.99267 7.96157 10.4404 8.51385 10.4404H17.4862C18.0385 10.4404 18.4862 9.99267 18.4862 9.44039V4.62013Z" fill="url(#paint4_linear_0_27143)" stroke="url(#paint5_linear_0_27143)" stroke-linecap="round" stroke-linejoin="round"/>
<mask id="mask4_0_27143" style="mask-type:luminance" maskUnits="userSpaceOnUse" x="7" y="3" width="12" height="5">
<path fill-rule="evenodd" clip-rule="evenodd" d="M18.4862 4.62C18.4862 3.94719 17.8352 3.46635 17.1921 3.66422L13 4.95409L8.80794 3.66422C8.16489 3.46636 7.51385 3.94719 7.51385 4.62V5.64214C7.51385 6.19442 7.96157 6.64214 8.51385 6.64214H17.4862C18.0385 6.64214 18.4862 6.19442 18.4862 5.64214V4.62Z" fill="white" stroke="white" stroke-linecap="round" stroke-linejoin="round"/>
</mask>
<g mask="url(#mask4_0_27143)">
<g opacity="0.04">
<path fill-rule="evenodd" clip-rule="evenodd" d="M9.99946 2.86471C11.8559 1.79291 14.1431 1.79291 15.9995 2.86471L19.1565 4.68743C21.0129 5.75923 22.1565 7.73999 22.1565 9.88358V13.529C22.1565 15.6726 21.0129 17.6534 19.1565 18.7252L15.9995 20.5479C14.1431 21.6197 11.8559 21.6197 9.99946 20.5479L6.84241 18.7252C4.986 17.6534 3.84241 15.6726 3.84241 13.529L3.84241 9.88359C3.84241 7.73999 4.986 5.75923 6.84241 4.68743L9.99946 2.86471Z" fill="#0602F3" style="mix-blend-mode:multiply"/>
</g>
</g>
<path fill-rule="evenodd" clip-rule="evenodd" d="M11.0001 3.1547C12.2377 2.44017 13.7625 2.44017 15.0001 3.1547L19.406 5.69845C20.6436 6.41298 21.406 7.73348 21.406 9.16255V14.25C21.406 15.6791 20.6436 16.9996 19.406 17.7141L15.0001 20.2579C13.7624 20.9724 12.2377 20.9724 11.0001 20.2579L6.59416 17.7141C5.35655 16.9996 4.59416 15.6791 4.59416 14.25V9.16255C4.59416 7.73348 5.35655 6.41298 6.59416 5.69845L11.0001 3.1547Z" fill="url(#paint6_linear_0_27143)" stroke="#FFF04D" stroke-opacity="0.4"/>
<path d="M13.7386 2.67004C13.2816 2.40619 12.7185 2.40619 12.2615 2.67004L5.5437 6.54859C5.0867 6.81244 4.80518 7.30005 4.80518 7.82775L4.80518 15.5848C4.80518 16.1125 5.0867 16.6002 5.5437 16.864L12.2615 20.7425C12.7185 21.0064 13.2816 21.0064 13.7386 20.7425L20.4564 16.864C20.9134 16.6002 21.195 16.1125 21.195 15.5848V7.82775C21.195 7.30005 20.9134 6.81244 20.4564 6.54859L13.7386 2.67004Z" stroke="#F9B307"/>
<path opacity="0.4" d="M13.7386 20.7425C14.5287 20.2864 15.0885 19.9632 15.418 19.7729" stroke="white" stroke-linecap="round"/>
<path d="M21.195 15.5848V7.82775C21.195 7.30005 20.9134 6.81244 20.4564 6.54859L13.7386 2.67004C13.2816 2.40619 12.7185 2.40619 12.2615 2.67004L5.5437 6.54859C5.0867 6.81244 4.80518 7.30005 4.80518 7.82775L4.80518 15.5848" stroke="#FAC00E" stroke-linecap="round"/>
<path opacity="0.6" d="M21.195 7.82775C21.195 7.30005 20.9134 6.81244 20.4564 6.54859L13.7386 2.67004C13.2816 2.40619 12.7185 2.40619 12.2615 2.67004L5.5437 6.54859C5.0867 6.81244 4.80518 7.30005 4.80518 7.82775" stroke="#FDDB3D" stroke-linecap="round"/>
<path opacity="0.6" d="M13.7386 2.67004C13.2816 2.40619 12.7186 2.40619 12.2616 2.67004C12.2616 2.67004 10.0223 3.96289 8.90265 4.60931" stroke="white" stroke-linecap="round"/>
<path d="M12.2616 2.67003C12.2616 2.67003 11.0764 3.35426 10.5821 3.63967" stroke="white" stroke-linecap="round"/>
<g filter="url(#filter2_d_0_27143)">
<path fill-rule="evenodd" clip-rule="evenodd" d="M12.0001 5.53144C12.6189 5.17417 13.3813 5.17417 14.0001 5.53144L17.8476 7.75284C18.4664 8.1101 18.8476 8.77036 18.8476 9.48489V13.9277C18.8476 14.6422 18.4664 15.3025 17.8476 15.6597L14.0001 17.8811C13.3813 18.2384 12.6189 18.2384 12.0001 17.8811L8.15249 15.6597C7.53369 15.3025 7.15249 14.6422 7.15249 13.9277V9.48489C7.15249 8.77036 7.53369 8.1101 8.15249 7.75284L12.0001 5.53144Z" fill="url(#paint7_linear_0_27143)"/>
<path d="M14.2501 5.09842C13.4766 4.65184 12.5236 4.65184 11.7501 5.09842L7.90249 7.31982C7.12898 7.76641 6.65249 8.59173 6.65249 9.48489V13.9277C6.65249 14.8209 7.12899 15.6462 7.90249 16.0928L11.7501 18.3142C12.5236 18.7607 13.4766 18.7607 14.2501 18.3142L18.0976 16.0928C18.8711 15.6462 19.3476 14.8209 19.3476 13.9277V9.48489C19.3476 8.59172 18.8711 7.76641 18.0976 7.31982L14.2501 5.09842Z" stroke="#F5900D" stroke-opacity="0.1" style="mix-blend-mode:multiply"/>
</g>
<mask id="mask5_0_27143" style="mask-type:luminance" maskUnits="userSpaceOnUse" x="7" y="5" width="12" height="14">
<path fill-rule="evenodd" clip-rule="evenodd" d="M12.0001 5.53144C12.6189 5.17417 13.3813 5.17417 14.0001 5.53144L17.8476 7.75284C18.4664 8.1101 18.8476 8.77036 18.8476 9.48489V13.9277C18.8476 14.6422 18.4664 15.3025 17.8476 15.6597L14.0001 17.8811C13.3813 18.2384 12.6189 18.2384 12.0001 17.8811L8.15249 15.6597C7.53369 15.3025 7.15249 14.6422 7.15249 13.9277V9.48489C7.15249 8.77036 7.53369 8.1101 8.15249 7.75284L12.0001 5.53144Z" fill="white"/>
</mask>
<g mask="url(#mask5_0_27143)">
<g style="mix-blend-mode:multiply" opacity="0.3">
<path fill-rule="evenodd" clip-rule="evenodd" d="M13.0001 11.7063L6.24786 13.3943V10.0182L13.0001 11.7063ZM13.0001 11.7063L14.6881 4.95409H11.312L13.0001 11.7063ZM13.0001 11.7063L19.7523 10.0182V13.3943L13.0001 11.7063ZM13.0001 11.7063L16.581 5.73813L18.9682 8.12539L13.0001 11.7063ZM13.0001 11.7063L16.581 17.6744L18.9682 15.2872L13.0001 11.7063ZM13.0001 11.7063L11.312 18.4585H14.6881L13.0001 11.7063ZM13.0001 11.7063L9.41917 17.6744L7.03191 15.2872L13.0001 11.7063Z" fill="#FFD640"/>
<path d="M9.41917 5.73813L7.03191 8.12539L13.0001 11.7063L9.41917 5.73813Z" fill="#FFD640"/>
</g>
<path opacity="0.4" d="M18.3201 8.26927L13.3166 5.38046C13.1207 5.26738 12.8794 5.26738 12.6835 5.38046C12.0951 5.72021 11.6781 5.96095 11.4327 6.10266C10.9218 6.3976 10.5049 6.63833 10.1818 6.82486C9.62582 7.14584 8.79189 7.62731 7.67999 8.26927" stroke="white" stroke-linecap="round"/>
<path opacity="0.4" d="M18.3201 15.1288L13.3166 18.0176C13.1207 18.1307 12.8794 18.1307 12.6835 18.0176" stroke="white" stroke-linecap="round"/>
<path d="M12.6836 5.38046C12.0951 5.72021 11.6781 5.96095 11.4327 6.10266" stroke="white" stroke-linecap="round"/>
</g>
<g filter="url(#filter3_d_0_27143)">
<path d="M11.9238 10.225L13 8.65468L14.0763 10.225L15.9023 10.7633L14.7414 12.2721L14.7937 14.1751L13 13.5373L11.2063 14.1751L11.2587 12.2721L10.0978 10.7633L11.9238 10.225Z" fill="white"/>
<path d="M13.4125 8.37202C13.3192 8.23599 13.1649 8.15468 13 8.15468C12.8351 8.15468 12.6808 8.23599 12.5876 8.37202L11.6119 9.79568L9.9564 10.2837C9.79822 10.3303 9.67321 10.4519 9.62225 10.6088C9.57129 10.7656 9.60094 10.9375 9.7015 11.0682L10.754 12.4361L10.7065 14.1614C10.702 14.3262 10.779 14.4827 10.9124 14.5796C11.0459 14.6765 11.2185 14.7014 11.3739 14.6462L13 14.0679L14.6262 14.6462C14.7816 14.7014 14.9542 14.6765 15.0876 14.5796C15.221 14.4827 15.2981 14.3262 15.2935 14.1613L15.2461 12.4361L16.2986 11.0682C16.3991 10.9375 16.4288 10.7656 16.3778 10.6088C16.3269 10.4519 16.2018 10.3303 16.0437 10.2837L14.3882 9.79568L13.4125 8.37202Z" stroke="white" stroke-linejoin="round"/>
</g>
<path d="M11.9238 10.225L13 8.65468L14.0763 10.225L15.9023 10.7633L14.7414 12.2721L14.7937 14.1751L13 13.5373L11.2063 14.1751L11.2587 12.2721L10.0978 10.7633L11.9238 10.225Z" fill="url(#paint8_linear_0_27143)"/>
<path opacity="0.4" d="M13 11.7063V8.65468L11.9095 10.2034L13 11.7063Z" fill="url(#paint9_linear_0_27143)"/>
<path opacity="0.8" d="M13 11.7063L11.9095 10.2034L10.0978 10.7633L13 11.7063Z" fill="url(#paint10_linear_0_27143)"/>
<path opacity="0.5" d="M13.0001 11.7063L11.2343 12.2808L11.2064 14.1751L13.0001 11.7063Z" fill="url(#paint11_linear_0_27143)"/>
<path opacity="0.4" d="M14.7938 14.1751L14.7658 12.2808L13.0001 11.7063L14.7938 14.1751Z" fill="url(#paint12_linear_0_27143)"/>
<path d="M14.7658 12.2808L15.9023 10.7633L13.0001 11.7063L14.7658 12.2808Z" fill="#FEBA1B"/>
<path opacity="0.6" d="M15.9023 10.7633L14.0906 10.2034L13.0001 11.7063L15.9023 10.7633Z" fill="url(#paint13_linear_0_27143)"/>
<g filter="url(#filter4_d_0_27143)">
<path fill-rule="evenodd" clip-rule="evenodd" d="M17.6046 9.08134L17.3854 8.9949C17.2514 8.94204 17.1856 8.79052 17.2384 8.65648C17.2649 8.58924 17.3182 8.53601 17.3854 8.50949L17.6046 8.42306C17.8573 8.32338 18.0574 8.12331 18.1571 7.87057L18.2435 7.65141C18.2964 7.51737 18.4479 7.45156 18.5819 7.50442C18.6492 7.53094 18.7024 7.58417 18.7289 7.65141L18.8153 7.87057C18.915 8.12331 19.1151 8.32338 19.3678 8.42306L19.587 8.50949C19.721 8.56236 19.7868 8.71388 19.734 8.84792C19.7074 8.91516 19.6542 8.96838 19.587 8.9949L19.3678 9.08134C19.1151 9.18102 18.915 9.38108 18.8153 9.63382L18.7289 9.85299C18.676 9.98703 18.5245 10.0528 18.3905 9.99997C18.3232 9.97345 18.27 9.92023 18.2435 9.85299L18.1571 9.63382C18.0574 9.38108 17.8573 9.18102 17.6046 9.08134Z" fill="white"/>
</g>
<g filter="url(#filter5_d_0_27143)">
<path fill-rule="evenodd" clip-rule="evenodd" d="M8.19219 16.1458L8.04608 16.0882C7.95672 16.053 7.91285 15.952 7.94809 15.8626C7.96577 15.8178 8.00125 15.7823 8.04608 15.7646L8.19219 15.707C8.36068 15.6405 8.49406 15.5072 8.56051 15.3387L8.61814 15.1925C8.65338 15.1032 8.75439 15.0593 8.84375 15.0946C8.88858 15.1122 8.92406 15.1477 8.94174 15.1925L8.99937 15.3387C9.06582 15.5072 9.19919 15.6405 9.36769 15.707L9.5138 15.7646C9.60316 15.7998 9.64703 15.9009 9.61179 15.9902C9.59411 16.035 9.55863 16.0705 9.5138 16.0882L9.36769 16.1458C9.19919 16.2123 9.06582 16.3457 8.99937 16.5142L8.94174 16.6603C8.9065 16.7496 8.80549 16.7935 8.71612 16.7583C8.6713 16.7406 8.63582 16.7051 8.61814 16.6603L8.56051 16.5142C8.49406 16.3457 8.36068 16.2123 8.19219 16.1458Z" fill="white"/>
</g>
<g filter="url(#filter6_d_0_27143)">
<path fill-rule="evenodd" clip-rule="evenodd" d="M6.56821 9.6595L6.38557 9.58747C6.27387 9.54342 6.21903 9.41715 6.26308 9.30545C6.28518 9.24942 6.32954 9.20506 6.38557 9.18296L6.56821 9.11093C6.77883 9.02787 6.94554 8.86115 7.02861 8.65053L7.10064 8.46789C7.1447 8.35619 7.27096 8.30135 7.38266 8.3454C7.4387 8.3675 7.48305 8.41186 7.50515 8.46789L7.57718 8.65053C7.66025 8.86115 7.82697 9.02787 8.03758 9.11093L8.22022 9.18296C8.33192 9.22702 8.38676 9.35328 8.34271 9.46498C8.32061 9.52102 8.27625 9.56537 8.22022 9.58747L8.03758 9.6595C7.82697 9.74257 7.66025 9.90929 7.57718 10.1199L7.50515 10.3025C7.46109 10.4142 7.33483 10.4691 7.22313 10.425C7.1671 10.4029 7.12274 10.3586 7.10064 10.3025L7.02861 10.1199C6.94554 9.90929 6.77883 9.74257 6.56821 9.6595Z" fill="white"/>
</g>
<g filter="url(#filter7_d_0_27143)">
<path fill-rule="evenodd" clip-rule="evenodd" d="M17.4124 15.88L17.3028 15.8368C17.2358 15.8103 17.2029 15.7346 17.2293 15.6675C17.2425 15.6339 17.2692 15.6073 17.3028 15.594L17.4124 15.5508C17.5387 15.501 17.6388 15.401 17.6886 15.2746L17.7318 15.165C17.7583 15.098 17.834 15.0651 17.901 15.0915C17.9347 15.1048 17.9613 15.1314 17.9745 15.165L18.0177 15.2746C18.0676 15.401 18.1676 15.501 18.294 15.5508L18.4036 15.594C18.4706 15.6205 18.5035 15.6962 18.4771 15.7633C18.4638 15.7969 18.4372 15.8235 18.4036 15.8368L18.294 15.88C18.1676 15.9298 18.0676 16.0298 18.0177 16.1562L17.9745 16.2658C17.9481 16.3328 17.8723 16.3657 17.8053 16.3393C17.7717 16.326 17.7451 16.2994 17.7318 16.2658L17.6886 16.1562C17.6388 16.0298 17.5387 15.9298 17.4124 15.88Z" fill="white"/>
</g>
<path d="M30.696 17H29.2983L32.4389 8.27273H33.9602L37.1009 17H35.7031L33.2358 9.85795H33.1676L30.696 17ZM30.9304 13.5824H35.4645V14.6903H30.9304V13.5824ZM40.1237 17.1278C39.5953 17.1278 39.1237 16.9929 38.7089 16.723C38.297 16.4503 37.9731 16.0625 37.7373 15.5597C37.5044 15.054 37.3879 14.4474 37.3879 13.7401C37.3879 13.0327 37.5058 12.4276 37.7416 11.9247C37.9802 11.4219 38.3069 11.0369 38.7217 10.7699C39.1365 10.5028 39.6066 10.3693 40.1322 10.3693C40.5385 10.3693 40.8652 10.4375 41.1123 10.5739C41.3623 10.7074 41.5555 10.8636 41.6919 11.0426C41.8311 11.2216 41.939 11.3793 42.0157 11.5156H42.0924V8.27273H43.3666V17H42.1223V15.9815H42.0157C41.939 16.1207 41.8282 16.2798 41.6834 16.4588C41.5413 16.6378 41.3453 16.794 41.0953 16.9276C40.8453 17.0611 40.5214 17.1278 40.1237 17.1278ZM40.4049 16.0412C40.7714 16.0412 41.0811 15.9446 41.3339 15.7514C41.5896 15.5554 41.7828 15.2841 41.9135 14.9375C42.047 14.5909 42.1137 14.1875 42.1137 13.7273C42.1137 13.2727 42.0484 12.875 41.9177 12.5341C41.787 12.1932 41.5953 11.9276 41.3424 11.7372C41.0896 11.5469 40.7771 11.4517 40.4049 11.4517C40.0214 11.4517 39.7018 11.5511 39.4461 11.75C39.1905 11.9489 38.9973 12.2202 38.8666 12.5639C38.7388 12.9077 38.6748 13.2955 38.6748 13.7273C38.6748 14.1648 38.7402 14.5582 38.8709 14.9077C39.0015 15.2571 39.1947 15.5341 39.4504 15.7386C39.7089 15.9403 40.0271 16.0412 40.4049 16.0412ZM50.3046 10.4545L47.931 17H46.5673L44.1895 10.4545H45.5574L47.2151 15.4915H47.2833L48.9367 10.4545H50.3046ZM52.7393 17.1449C52.3246 17.1449 51.9496 17.0682 51.6143 16.9148C51.2791 16.7585 51.0135 16.5327 50.8175 16.2372C50.6243 15.9418 50.5277 15.5795 50.5277 15.1506C50.5277 14.7812 50.5987 14.4773 50.7408 14.2386C50.8828 14 51.0746 13.8111 51.316 13.6719C51.5575 13.5327 51.8274 13.4276 52.1257 13.3565C52.424 13.2855 52.728 13.2315 53.0376 13.1946C53.4297 13.1491 53.7479 13.1122 53.9922 13.0838C54.2365 13.0526 54.414 13.0028 54.5248 12.9347C54.6356 12.8665 54.691 12.7557 54.691 12.6023V12.5724C54.691 12.2003 54.5859 11.9119 54.3757 11.7074C54.1683 11.5028 53.8587 11.4006 53.4467 11.4006C53.0177 11.4006 52.6797 11.4957 52.4325 11.6861C52.1882 11.8736 52.0192 12.0824 51.9254 12.3125L50.728 12.0398C50.87 11.642 51.0774 11.321 51.3501 11.0767C51.6257 10.8295 51.9425 10.6506 52.3004 10.5398C52.6584 10.4261 53.0348 10.3693 53.4297 10.3693C53.691 10.3693 53.968 10.4006 54.2606 10.4631C54.5561 10.5227 54.8317 10.6335 55.0873 10.7955C55.3459 10.9574 55.5575 11.1889 55.7223 11.4901C55.8871 11.7884 55.9694 12.1761 55.9694 12.6534V17H54.7251V16.1051H54.674C54.5916 16.2699 54.468 16.4318 54.3033 16.5909C54.1385 16.75 53.9268 16.8821 53.6683 16.9872C53.4098 17.0923 53.1001 17.1449 52.7393 17.1449ZM53.0163 16.1222C53.3686 16.1222 53.6697 16.0526 53.9197 15.9134C54.1726 15.7741 54.3643 15.5923 54.495 15.3679C54.6285 15.1406 54.6953 14.8977 54.6953 14.6392V13.7955C54.6498 13.8409 54.5618 13.8835 54.4311 13.9233C54.3033 13.9602 54.1569 13.9929 53.9922 14.0213C53.8274 14.0469 53.6669 14.071 53.5106 14.0938C53.3544 14.1136 53.2237 14.1307 53.1186 14.1449C52.8714 14.1761 52.6456 14.2287 52.441 14.3026C52.2393 14.3764 52.0774 14.483 51.9552 14.6222C51.8359 14.7585 51.7763 14.9403 51.7763 15.1676C51.7763 15.483 51.8927 15.7216 52.1257 15.8835C52.3587 16.0426 52.6555 16.1222 53.0163 16.1222ZM58.4607 13.1136V17H57.1865V10.4545H58.4095V11.5199H58.4905C58.6411 11.1733 58.8769 10.8949 59.1979 10.6847C59.5218 10.4744 59.9294 10.3693 60.4209 10.3693C60.8669 10.3693 61.2576 10.4631 61.5928 10.6506C61.928 10.8352 62.188 11.1108 62.3726 11.4773C62.5573 11.8437 62.6496 12.2969 62.6496 12.8366V17H61.3755V12.9901C61.3755 12.5156 61.2519 12.1449 61.0047 11.8778C60.7576 11.608 60.4181 11.473 59.9862 11.473C59.6908 11.473 59.428 11.5369 59.1979 11.6648C58.9706 11.7926 58.7902 11.9801 58.6567 12.2273C58.526 12.4716 58.4607 12.767 58.4607 13.1136ZM66.6355 17.1321C66.002 17.1321 65.4565 16.9886 64.9991 16.7017C64.5446 16.4119 64.1952 16.0128 63.9509 15.5043C63.7065 14.9957 63.5844 14.4134 63.5844 13.7571C63.5844 13.0923 63.7094 12.5057 63.9594 11.9972C64.2094 11.4858 64.5616 11.0866 65.0162 10.7997C65.4707 10.5128 66.0062 10.3693 66.6227 10.3693C67.1199 10.3693 67.5631 10.4616 67.9523 10.6463C68.3415 10.8281 68.6554 11.0838 68.894 11.4134C69.1355 11.7429 69.279 12.1278 69.3244 12.5682H68.0844C68.0162 12.2614 67.8599 11.9972 67.6156 11.7756C67.3741 11.554 67.0503 11.4432 66.644 11.4432C66.2889 11.4432 65.9778 11.5369 65.7108 11.7244C65.4466 11.9091 65.2406 12.1733 65.0929 12.517C64.9452 12.858 64.8713 13.2614 64.8713 13.7273C64.8713 14.2045 64.9437 14.6165 65.0886 14.9631C65.2335 15.3097 65.4381 15.5781 65.7023 15.7685C65.9693 15.9588 66.2832 16.054 66.644 16.054C66.8855 16.054 67.1043 16.0099 67.3003 15.9219C67.4991 15.831 67.6653 15.7017 67.7989 15.5341C67.9352 15.3665 68.0304 15.1648 68.0844 14.929H69.3244C69.279 15.3523 69.1412 15.7301 68.9111 16.0625C68.681 16.3949 68.3727 16.6562 67.9864 16.8466C67.6028 17.0369 67.1526 17.1321 66.6355 17.1321ZM73.028 17.1321C72.3831 17.1321 71.8277 16.9943 71.3618 16.7188C70.8988 16.4403 70.5408 16.0497 70.288 15.5469C70.038 15.0412 69.913 14.4489 69.913 13.7699C69.913 13.0994 70.038 12.5085 70.288 11.9972C70.5408 11.4858 70.8931 11.0866 71.3448 10.7997C71.7993 10.5128 72.3306 10.3693 72.9385 10.3693C73.3079 10.3693 73.6658 10.4304 74.0124 10.5526C74.359 10.6747 74.6701 10.8665 74.9456 11.1278C75.2212 11.3892 75.4385 11.7287 75.5976 12.1463C75.7567 12.5611 75.8363 13.0653 75.8363 13.6591V14.1108H70.6331V13.1562H74.5877C74.5877 12.821 74.5195 12.5241 74.3831 12.2656C74.2468 12.0043 74.055 11.7983 73.8079 11.6477C73.5635 11.4972 73.2766 11.4219 72.9471 11.4219C72.5891 11.4219 72.2766 11.5099 72.0096 11.6861C71.7454 11.8594 71.5408 12.0866 71.3959 12.3679C71.2539 12.6463 71.1829 12.9489 71.1829 13.2756V14.0213C71.1829 14.4588 71.2596 14.831 71.413 15.1378C71.5692 15.4446 71.7865 15.679 72.065 15.8409C72.3434 16 72.6686 16.0795 73.0408 16.0795C73.2823 16.0795 73.5025 16.0455 73.7013 15.9773C73.9002 15.9062 74.0721 15.8011 74.2169 15.6619C74.3618 15.5227 74.4726 15.3509 74.5493 15.1463L75.7553 15.3636C75.6587 15.7187 75.4854 16.0298 75.2354 16.2969C74.9883 16.5611 74.6772 16.767 74.3022 16.9148C73.93 17.0597 73.5053 17.1321 73.028 17.1321ZM79.2203 17.1278C78.6918 17.1278 78.2203 16.9929 77.8055 16.723C77.3936 16.4503 77.0697 16.0625 76.8339 15.5597C76.6009 15.054 76.4845 14.4474 76.4845 13.7401C76.4845 13.0327 76.6024 12.4276 76.8382 11.9247C77.0768 11.4219 77.4035 11.0369 77.8183 10.7699C78.233 10.5028 78.7032 10.3693 79.2288 10.3693C79.635 10.3693 79.9617 10.4375 80.2089 10.5739C80.4589 10.7074 80.6521 10.8636 80.7884 11.0426C80.9276 11.2216 81.0356 11.3793 81.1123 11.5156H81.189V8.27273H82.4632V17H81.2188V15.9815H81.1123C81.0356 16.1207 80.9248 16.2798 80.7799 16.4588C80.6379 16.6378 80.4418 16.794 80.1918 16.9276C79.9418 17.0611 79.618 17.1278 79.2203 17.1278ZM79.5015 16.0412C79.868 16.0412 80.1776 15.9446 80.4305 15.7514C80.6862 15.5554 80.8793 15.2841 81.01 14.9375C81.1436 14.5909 81.2103 14.1875 81.2103 13.7273C81.2103 13.2727 81.145 12.875 81.0143 12.5341C80.8836 12.1932 80.6918 11.9276 80.439 11.7372C80.1862 11.5469 79.8737 11.4517 79.5015 11.4517C79.118 11.4517 78.7984 11.5511 78.5427 11.75C78.287 11.9489 78.0938 12.2202 77.9632 12.5639C77.8353 12.9077 77.7714 13.2955 77.7714 13.7273C77.7714 14.1648 77.8367 14.5582 77.9674 14.9077C78.0981 15.2571 78.2913 15.5341 78.547 15.7386C78.8055 15.9403 79.1237 16.0412 79.5015 16.0412Z" fill="black"/>
<defs>
<filter id="filter0_d_0_27143" x="1.59851" y="10.4403" width="16.3253" height="18.8615" filterUnits="userSpaceOnUse" color-interpolation-filters="sRGB">
<feFlood flood-opacity="0" result="BackgroundImageFix"/>
<feColorMatrix in="SourceAlpha" type="matrix" values="0 0 0 0 0 0 0 0 0 0 0 0 0 0 0 0 0 0 127 0" result="hardAlpha"/>
<feOffset dy="2"/>
<feGaussianBlur stdDeviation="1"/>
<feColorMatrix type="matrix" values="0 0 0 0 0.401412 0 0 0 0 0.333333 0 0 0 0 0.819608 0 0 0 0.2 0"/>
<feBlend mode="darken" in2="BackgroundImageFix" result="effect1_dropShadow_0_27143"/>
<feBlend mode="normal" in="SourceGraphic" in2="effect1_dropShadow_0_27143" result="shape"/>
</filter>
<filter id="filter1_d_0_27143" x="8.07623" y="10.4403" width="16.3253" height="18.8615" filterUnits="userSpaceOnUse" color-interpolation-filters="sRGB">
<feFlood flood-opacity="0" result="BackgroundImageFix"/>
<feColorMatrix in="SourceAlpha" type="matrix" values="0 0 0 0 0 0 0 0 0 0 0 0 0 0 0 0 0 0 127 0" result="hardAlpha"/>
<feOffset dy="2"/>
<feGaussianBlur stdDeviation="1"/>
<feColorMatrix type="matrix" values="0 0 0 0 0.401412 0 0 0 0 0.333333 0 0 0 0 0.819608 0 0 0 0.2 0"/>
<feBlend mode="darken" in2="BackgroundImageFix" result="effect1_dropShadow_0_27143"/>
<feBlend mode="normal" in="SourceGraphic" in2="effect1_dropShadow_0_27143" result="shape"/>
</filter>
<filter id="filter2_d_0_27143" x="4.15247" y="3.26349" width="17.6952" height="18.8856" filterUnits="userSpaceOnUse" color-interpolation-filters="sRGB">
<feFlood flood-opacity="0" result="BackgroundImageFix"/>
<feColorMatrix in="SourceAlpha" type="matrix" values="0 0 0 0 0 0 0 0 0 0 0 0 0 0 0 0 0 0 127 0" result="hardAlpha"/>
<feOffset dy="1"/>
<feGaussianBlur stdDeviation="1"/>
<feColorMatrix type="matrix" values="0 0 0 0 0.927721 0 0 0 0 0.665867 0 0 0 0 0.0535899 0 0 0 0.4 0"/>
<feBlend mode="normal" in2="BackgroundImageFix" result="effect1_dropShadow_0_27143"/>
<feBlend mode="normal" in="SourceGraphic" in2="effect1_dropShadow_0_27143" result="shape"/>
</filter>
<filter id="filter3_d_0_27143" x="7.09778" y="6.65468" width="11.8045" height="11.5204" filterUnits="userSpaceOnUse" color-interpolation-filters="sRGB">
<feFlood flood-opacity="0" result="BackgroundImageFix"/>
<feColorMatrix in="SourceAlpha" type="matrix" values="0 0 0 0 0 0 0 0 0 0 0 0 0 0 0 0 0 0 127 0" result="hardAlpha"/>
<feOffset dy="1"/>
<feGaussianBlur stdDeviation="1"/>
<feColorMatrix type="matrix" values="0 0 0 0 0.996078 0 0 0 0 0.733333 0 0 0 0 0.105882 0 0 0 1 0"/>
<feBlend mode="normal" in2="BackgroundImageFix" result="effect1_dropShadow_0_27143"/>
<feBlend mode="normal" in="SourceGraphic" in2="effect1_dropShadow_0_27143" result="shape"/>
</filter>
<filter id="filter4_d_0_27143" x="15.2202" y="5.48616" width="6.5321" height="6.53207" filterUnits="userSpaceOnUse" color-interpolation-filters="sRGB">
<feFlood flood-opacity="0" result="BackgroundImageFix"/>
<feColorMatrix in="SourceAlpha" type="matrix" values="0 0 0 0 0 0 0 0 0 0 0 0 0 0 0 0 0 0 127 0" result="hardAlpha"/>
<feOffset/>
<feGaussianBlur stdDeviation="1"/>
<feColorMatrix type="matrix" values="0 0 0 0 1 0 0 0 0 0.94902 0 0 0 0 0.305882 0 0 0 1 0"/>
<feBlend mode="normal" in2="BackgroundImageFix" result="effect1_dropShadow_0_27143"/>
<feBlend mode="normal" in="SourceGraphic" in2="effect1_dropShadow_0_27143" result="shape"/>
</filter>
<filter id="filter5_d_0_27143" x="5.93591" y="13.0824" width="5.68805" height="5.68805" filterUnits="userSpaceOnUse" color-interpolation-filters="sRGB">
<feFlood flood-opacity="0" result="BackgroundImageFix"/>
<feColorMatrix in="SourceAlpha" type="matrix" values="0 0 0 0 0 0 0 0 0 0 0 0 0 0 0 0 0 0 127 0" result="hardAlpha"/>
<feOffset/>
<feGaussianBlur stdDeviation="1"/>
<feColorMatrix type="matrix" values="0 0 0 0 1 0 0 0 0 0.94902 0 0 0 0 0.305882 0 0 0 1 0"/>
<feBlend mode="normal" in2="BackgroundImageFix" result="effect1_dropShadow_0_27143"/>
<feBlend mode="normal" in="SourceGraphic" in2="effect1_dropShadow_0_27143" result="shape"/>
</filter>
<filter id="filter6_d_0_27143" x="4.24786" y="6.33018" width="6.11005" height="6.11006" filterUnits="userSpaceOnUse" color-interpolation-filters="sRGB">
<feFlood flood-opacity="0" result="BackgroundImageFix"/>
<feColorMatrix in="SourceAlpha" type="matrix" values="0 0 0 0 0 0 0 0 0 0 0 0 0 0 0 0 0 0 127 0" result="hardAlpha"/>
<feOffset/>
<feGaussianBlur stdDeviation="1"/>
<feColorMatrix type="matrix" values="0 0 0 0 1 0 0 0 0 0.94902 0 0 0 0 0.305882 0 0 0 1 0"/>
<feBlend mode="normal" in2="BackgroundImageFix" result="effect1_dropShadow_0_27143"/>
<feBlend mode="normal" in="SourceGraphic" in2="effect1_dropShadow_0_27143" result="shape"/>
</filter>
<filter id="filter7_d_0_27143" x="15.2202" y="13.0824" width="5.26605" height="5.26604" filterUnits="userSpaceOnUse" color-interpolation-filters="sRGB">
<feFlood flood-opacity="0" result="BackgroundImageFix"/>
<feColorMatrix in="SourceAlpha" type="matrix" values="0 0 0 0 0 0 0 0 0 0 0 0 0 0 0 0 0 0 127 0" result="hardAlpha"/>
<feOffset/>
<feGaussianBlur stdDeviation="1"/>
<feColorMatrix type="matrix" values="0 0 0 0 1 0 0 0 0 0.94902 0 0 0 0 0.305882 0 0 0 1 0"/>
<feBlend mode="normal" in2="BackgroundImageFix" result="effect1_dropShadow_0_27143"/>
<feBlend mode="normal" in="SourceGraphic" in2="effect1_dropShadow_0_27143" result="shape"/>
</filter>
<linearGradient id="paint0_linear_0_27143" x1="22.7064" y1="4.95409" x2="22.7064" y2="12.9723" gradientUnits="userSpaceOnUse">
<stop stop-color="#F7C71A"/>
<stop offset="1" stop-color="#FBAA00"/>
</linearGradient>
<linearGradient id="paint1_linear_0_27143" x1="22.7064" y1="4.95409" x2="22.7064" y2="12.9723" gradientUnits="userSpaceOnUse">
<stop stop-color="#FFDF6B"/>
<stop offset="1" stop-color="#F8A60A"/>
</linearGradient>
<linearGradient id="paint2_linear_0_27143" x1="3.29376" y1="4.95409" x2="3.29376" y2="12.9723" gradientUnits="userSpaceOnUse">
<stop stop-color="#F7C71A"/>
<stop offset="1" stop-color="#FBAA00"/>
</linearGradient>
<linearGradient id="paint3_linear_0_27143" x1="3.29376" y1="4.95409" x2="3.29376" y2="12.9723" gradientUnits="userSpaceOnUse">
<stop stop-color="#FFDF6B"/>
<stop offset="1" stop-color="#F8A60A"/>
</linearGradient>
<linearGradient id="paint4_linear_0_27143" x1="7.51385" y1="3.41544" x2="7.51385" y2="10.4404" gradientUnits="userSpaceOnUse">
<stop stop-color="#F7C71A"/>
<stop offset="1" stop-color="#FBAA00"/>
</linearGradient>
<linearGradient id="paint5_linear_0_27143" x1="7.51385" y1="3.41544" x2="7.51385" y2="10.4404" gradientUnits="userSpaceOnUse">
<stop stop-color="#FFDF6B"/>
<stop offset="1" stop-color="#F8A60A"/>
</linearGradient>
<linearGradient id="paint6_linear_0_27143" x1="3.29376" y1="2" x2="3.29376" y2="21.4126" gradientUnits="userSpaceOnUse">
<stop stop-color="#FDE046"/>
<stop offset="1" stop-color="#F9B800"/>
</linearGradient>
<linearGradient id="paint7_linear_0_27143" x1="6.24786" y1="4.95409" x2="6.24786" y2="18.4585" gradientUnits="userSpaceOnUse">
<stop stop-color="#FFF550"/>
<stop offset="1" stop-color="#FFD541"/>
</linearGradient>
<linearGradient id="paint8_linear_0_27143" x1="9.9484" y1="8.65468" x2="9.9484" y2="14.7579" gradientUnits="userSpaceOnUse">
<stop stop-color="#FCA50E"/>
<stop offset="1" stop-color="#FFC823"/>
</linearGradient>
<linearGradient id="paint9_linear_0_27143" x1="11.9095" y1="7.89178" x2="10.105" y2="9.1815" gradientUnits="userSpaceOnUse">
<stop stop-color="#FFEC36" stop-opacity="0.467505"/>
<stop offset="1" stop-color="#FFF7AB"/>
</linearGradient>
<linearGradient id="paint10_linear_0_27143" x1="10.1161" y1="10.5744" x2="11.8167" y2="12.6677" gradientUnits="userSpaceOnUse">
<stop stop-color="#FFED08" stop-opacity="0.8"/>
<stop offset="1" stop-color="white"/>
</linearGradient>
<linearGradient id="paint11_linear_0_27143" x1="12.1032" y1="14.7923" x2="13.5444" y2="12.6981" gradientUnits="userSpaceOnUse">
<stop stop-color="#FFED08" stop-opacity="0.01"/>
<stop offset="1" stop-color="#FFEF63"/>
</linearGradient>
<linearGradient id="paint12_linear_0_27143" x1="13.0001" y1="11.0891" x2="11.5589" y2="13.1833" gradientUnits="userSpaceOnUse">
<stop stop-color="#FFEC36" stop-opacity="0.467505"/>
<stop offset="1" stop-color="#FFE94A"/>
</linearGradient>
<linearGradient id="paint13_linear_0_27143" x1="13.0001" y1="9.82769" x2="12.5442" y2="11.5883" gradientUnits="userSpaceOnUse">
<stop stop-color="#FFEC36" stop-opacity="0.467505"/>
<stop offset="1" stop-color="#FFF7AB"/>
</linearGradient>
</defs>
</svg>
