<svg width="75" height="26" viewBox="0 0 75 26" fill="none" xmlns="http://www.w3.org/2000/svg">
<path fill-rule="evenodd" clip-rule="evenodd" d="M8 18.2547L6.84644 18.8463C5.22805 19.6763 4.41885 20.0913 3.82052 19.9831C3.29994 19.8889 2.85075 19.5705 2.59806 19.1167C2.30763 18.595 2.46217 17.716 2.77126 15.9581L2.99157 14.705L2.05831 13.8176C0.74901 12.5726 0.0943577 11.9501 0.0150026 11.3615C-0.0540402 10.8495 0.117535 10.3343 0.48194 9.95965C0.900773 9.529 1.80548 9.40076 3.61489 9.14427L4.90462 8.96146L5.4814 7.82139C6.2906 6.22194 6.69519 5.42222 7.24448 5.16672C7.72239 4.94443 8.27762 4.94443 8.75552 5.16672C9.30481 5.42222 9.70941 6.22194 10.5186 7.82139L11.0954 8.96146L12.3851 9.14427C14.1945 9.40076 15.0992 9.529 15.5181 9.95965C15.8825 10.3343 16.054 10.8495 15.985 11.3615C15.9056 11.9501 15.251 12.5726 13.9417 13.8176L13.0084 14.705L13.2287 15.9581C13.5378 17.716 13.6924 18.595 13.4019 19.1167C13.1492 19.5705 12.7001 19.8889 12.1795 19.9831C11.5811 20.0913 10.772 19.6763 9.15357 18.8463L8 18.2547Z" fill="#22C55E"/>
<path d="M24.2358 18.1392C23.6525 18.1392 23.1271 18.0232 22.6598 17.7912C22.1925 17.5592 21.8179 17.241 21.5362 16.8366C21.2545 16.4323 21.1004 15.9716 21.0739 15.4545H22.267C22.3134 15.9152 22.5223 16.2964 22.8935 16.598C23.268 16.8963 23.7154 17.0455 24.2358 17.0455C24.6534 17.0455 25.0246 16.9477 25.3494 16.7521C25.6776 16.5566 25.9344 16.2881 26.12 15.9467C26.3089 15.602 26.4034 15.2126 26.4034 14.7784C26.4034 14.3343 26.3056 13.9382 26.1101 13.5902C25.9179 13.2389 25.6527 12.9621 25.3146 12.7599C24.9766 12.5578 24.5904 12.455 24.1562 12.4517C23.8447 12.4484 23.5249 12.4964 23.1967 12.5959C22.8686 12.692 22.5985 12.8163 22.3864 12.9688L21.233 12.8295L21.8494 7.81818H27.1392V8.91193H22.8835L22.5256 11.9148H22.5852C22.794 11.7491 23.0559 11.6115 23.3707 11.5021C23.6856 11.3928 24.0137 11.3381 24.3551 11.3381C24.9782 11.3381 25.5334 11.4872 26.0206 11.7855C26.5111 12.0805 26.8956 12.4848 27.174 12.9986C27.4557 13.5123 27.5966 14.099 27.5966 14.7585C27.5966 15.4081 27.4508 15.9882 27.1591 16.4986C26.8707 17.0057 26.473 17.4067 25.9659 17.7017C25.4588 17.9934 24.8821 18.1392 24.2358 18.1392ZM29.7837 18.0795C29.5385 18.0795 29.328 17.9917 29.1524 17.8161C28.9767 17.6404 28.8889 17.4299 28.8889 17.1847C28.8889 16.9394 28.9767 16.7289 29.1524 16.5533C29.328 16.3776 29.5385 16.2898 29.7837 16.2898C30.029 16.2898 30.2395 16.3776 30.4151 16.5533C30.5908 16.7289 30.6786 16.9394 30.6786 17.1847C30.6786 17.3471 30.6372 17.4962 30.5543 17.6321C30.4748 17.768 30.3671 17.8774 30.2312 17.9602C30.0986 18.0398 29.9495 18.0795 29.7837 18.0795ZM35.4498 18.1392C34.7007 18.1392 34.0627 17.9354 33.5357 17.5277C33.0087 17.1167 32.606 16.5218 32.3276 15.7429C32.0492 14.9607 31.91 14.0161 31.91 12.9091C31.91 11.8087 32.0492 10.8691 32.3276 10.0902C32.6093 9.308 33.0137 8.71141 33.5407 8.30043C34.071 7.88613 34.7073 7.67898 35.4498 7.67898C36.1922 7.67898 36.8269 7.88613 37.3539 8.30043C37.8842 8.71141 38.2885 9.308 38.567 10.0902C38.8487 10.8691 38.9895 11.8087 38.9895 12.9091C38.9895 14.0161 38.8503 14.9607 38.5719 15.7429C38.2935 16.5218 37.8908 17.1167 37.3638 17.5277C36.8368 17.9354 36.1988 18.1392 35.4498 18.1392ZM35.4498 17.0455C36.1922 17.0455 36.7689 16.6875 37.1799 15.9716C37.5909 15.2557 37.7964 14.2348 37.7964 12.9091C37.7964 12.0275 37.7019 11.2768 37.513 10.657C37.3274 10.0372 37.0589 9.56487 36.7076 9.24006C36.3596 8.91525 35.9403 8.75284 35.4498 8.75284C34.714 8.75284 34.1389 9.11577 33.7246 9.84162C33.3103 10.5642 33.1032 11.5866 33.1032 12.9091C33.1032 13.7907 33.196 14.5398 33.3816 15.1562C33.5672 15.7727 33.834 16.2417 34.182 16.5632C34.5333 16.8847 34.9559 17.0455 35.4498 17.0455Z" fill="black"/>
<path d="M41.0362 12.9091C41.0362 11.6562 41.1986 10.5045 41.5235 9.45383C41.8516 8.39986 42.3189 7.4304 42.9254 6.54545H43.9595C43.7209 6.87358 43.4972 7.27794 43.2884 7.75852C43.0829 8.2358 42.9022 8.76113 42.7465 9.33452C42.5907 9.90459 42.4681 10.4946 42.3786 11.1044C42.2924 11.7143 42.2493 12.3158 42.2493 12.9091C42.2493 13.6979 42.3255 14.4983 42.478 15.3104C42.6305 16.1224 42.836 16.8764 43.0945 17.5724C43.353 18.2685 43.6414 18.8352 43.9595 19.2727H42.9254C42.3189 18.3878 41.8516 17.42 41.5235 16.3693C41.1986 15.3153 41.0362 14.1619 41.0362 12.9091ZM45.1524 15.9119V14.8977L49.6268 7.81818H50.3626V9.3892H49.8654L46.4848 14.7386V14.8182H52.5103V15.9119H45.1524ZM49.945 18V15.6037V15.1314V7.81818H51.1183V18H49.945ZM54.0934 18V17.1051L57.4542 13.4261C57.8486 12.9953 58.1734 12.6207 58.4287 12.3026C58.6839 11.9811 58.8728 11.6795 58.9954 11.3977C59.1214 11.1127 59.1843 10.8144 59.1843 10.5028C59.1843 10.1449 59.0982 9.83499 58.9258 9.57315C58.7568 9.31132 58.5248 9.10914 58.2298 8.96662C57.9348 8.8241 57.6034 8.75284 57.2355 8.75284C56.8444 8.75284 56.503 8.83404 56.2113 8.99645C55.923 9.15554 55.6993 9.37926 55.5402 9.66761C55.3844 9.95597 55.3065 10.294 55.3065 10.6818H54.1332C54.1332 10.0852 54.2707 9.56155 54.5458 9.1108C54.8209 8.66004 55.1955 8.30871 55.6694 8.05682C56.1467 7.80492 56.682 7.67898 57.2752 7.67898C57.8718 7.67898 58.4005 7.80492 58.8612 8.05682C59.3219 8.30871 59.6832 8.64844 59.945 9.07599C60.2068 9.50355 60.3377 9.97917 60.3377 10.5028C60.3377 10.8774 60.2698 11.2436 60.1339 11.6016C60.0013 11.9562 59.7693 12.3523 59.4379 12.7898C59.1098 13.224 58.654 13.7543 58.0707 14.3807L55.7838 16.8267V16.9062H60.5167V18H54.0934ZM65.4718 18.1392C64.8885 18.1392 64.3631 18.0232 63.8958 17.7912C63.4285 17.5592 63.054 17.241 62.7722 16.8366C62.4905 16.4323 62.3364 15.9716 62.3099 15.4545H63.5031C63.5495 15.9152 63.7583 16.2964 64.1295 16.598C64.504 16.8963 64.9515 17.0455 65.4718 17.0455C65.8894 17.0455 66.2606 16.9477 66.5854 16.7521C66.9136 16.5566 67.1704 16.2881 67.356 15.9467C67.545 15.602 67.6394 15.2126 67.6394 14.7784C67.6394 14.3343 67.5417 13.9382 67.3461 13.5902C67.1539 13.2389 66.8887 12.9621 66.5506 12.7599C66.2126 12.5578 65.8265 12.455 65.3923 12.4517C65.0807 12.4484 64.7609 12.4964 64.4327 12.5959C64.1046 12.692 63.8345 12.8163 63.6224 12.9688L62.469 12.8295L63.0854 7.81818H68.3752V8.91193H64.1195L63.7616 11.9148H63.8212C64.03 11.7491 64.2919 11.6115 64.6068 11.5021C64.9216 11.3928 65.2497 11.3381 65.5911 11.3381C66.2142 11.3381 66.7694 11.4872 67.2566 11.7855C67.7471 12.0805 68.1316 12.4848 68.41 12.9986C68.6917 13.5123 68.8326 14.099 68.8326 14.7585C68.8326 15.4081 68.6868 15.9882 68.3951 16.4986C68.1068 17.0057 67.709 17.4067 67.2019 17.7017C66.6948 17.9934 66.1181 18.1392 65.4718 18.1392ZM73.0531 12.9091C73.0531 14.1619 72.8891 15.3153 72.561 16.3693C72.2361 17.42 71.7705 18.3878 71.1639 19.2727H70.1298C70.3685 18.9446 70.5905 18.5402 70.796 18.0597C71.0048 17.5824 71.1871 17.0587 71.3429 16.4886C71.4987 15.9152 71.6197 15.3236 71.7058 14.7138C71.7953 14.1006 71.8401 13.4991 71.8401 12.9091C71.8401 12.1203 71.7638 11.3198 71.6114 10.5078C71.4589 9.69579 71.2534 8.94176 70.9949 8.24574C70.7364 7.54972 70.448 6.98295 70.1298 6.54545H71.1639C71.7705 7.4304 72.2361 8.39986 72.561 9.45383C72.8891 10.5045 73.0531 11.6562 73.0531 12.9091Z" fill="#737373"/>
</svg>
