<svg width="14" height="17" viewBox="0 0 14 17" fill="none" xmlns="http://www.w3.org/2000/svg">
<path fill-rule="evenodd" clip-rule="evenodd" d="M7 12.4874L5.99063 13.0002C4.57454 13.7195 3.86649 14.0792 3.34296 13.9853C2.88745 13.9037 2.49441 13.6278 2.27331 13.2344C2.01918 12.7823 2.1544 12.0206 2.42485 10.497L2.61762 9.41101L1.80103 8.64192C0.655384 7.56292 0.082563 7.02342 0.0131272 6.51333C-0.0472852 6.06954 0.102843 5.6231 0.421697 5.29837C0.788176 4.92513 1.57979 4.81399 3.16303 4.5917L4.29154 4.43326L4.79623 3.44521C5.50427 2.05902 5.85829 1.36592 6.33892 1.14449C6.75709 0.951836 7.24291 0.951836 7.66108 1.14449C8.14171 1.36592 8.49573 2.05902 9.20377 3.44521L9.70846 4.43326L10.837 4.5917C12.4202 4.81399 13.2118 4.92513 13.5783 5.29837C13.8972 5.6231 14.0473 6.06954 13.9869 6.51334C13.9174 7.02342 13.3446 7.56292 12.199 8.64192L11.3824 9.41101L11.5751 10.497C11.8456 12.0206 11.9808 12.7823 11.7267 13.2344C11.5056 13.6278 11.1125 13.9037 10.657 13.9853C10.1335 14.0792 9.42546 13.7195 8.00937 13.0002L7 12.4874Z" fill="#22C55E"/>
</svg>
